<svg xmlns="http://www.w3.org/2000/svg" xmlns:xlink="http://www.w3.org/1999/xlink" width="500" zoomAndPan="magnify" viewBox="0 0 375 374.999991" height="500" preserveAspectRatio="xMidYMid meet" version="1.0"><defs><clipPath id="71feb6b915"><path d="M 15 14 L 364 14 L 364 362 L 15 362 Z M 15 14 " clip-rule="nonzero"/></clipPath><clipPath id="ce4ef09714"><path d="M -12.160156 45.433594 L 326.859375 -14.34375 L 387.550781 329.847656 L 48.527344 389.625 Z M -12.160156 45.433594 " clip-rule="nonzero"/></clipPath><clipPath id="f73dd0c908"><path d="M -12.160156 45.433594 L 326.859375 -14.34375 L 387.550781 329.847656 L 48.527344 389.625 Z M -12.160156 45.433594 " clip-rule="nonzero"/></clipPath></defs><g clip-path="url(#71feb6b915)"><g clip-path="url(#ce4ef09714)"><g clip-path="url(#f73dd0c908)"><path fill="#545454" d="M 363.59375 200.632812 C 357.597656 278.035156 300.042969 344.597656 220.054688 358.703125 C 125.246094 375.417969 34.84375 312.117188 18.125 217.3125 C 1.410156 122.507812 64.710938 32.101562 159.515625 15.382812 C 161.757812 14.988281 163.996094 14.640625 166.230469 14.332031 C 169.367188 13.90625 172.300781 15.527344 173.597656 18.414062 C 174.898438 21.304688 174.167969 24.574219 171.765625 26.636719 C 139.632812 54.214844 122.464844 97.554688 130.351562 142.277344 C 142.238281 209.679688 206.511719 254.6875 273.914062 242.800781 C 305.863281 237.167969 332.773438 219.761719 350.984375 195.832031 C 352.902344 193.3125 356.128906 192.390625 359.089844 193.519531 C 362.046875 194.648438 363.839844 197.480469 363.59375 200.636719 Z M 363.59375 200.632812 " fill-opacity="1" fill-rule="evenodd"/><path fill="#545454" d="M 363.59375 200.632812 C 357.597656 278.035156 300.042969 344.597656 220.054688 358.703125 C 125.246094 375.417969 34.84375 312.117188 18.125 217.3125 C 1.410156 122.507812 64.710938 32.101562 159.515625 15.382812 C 161.757812 14.988281 163.996094 14.640625 166.230469 14.332031 C 169.367188 13.90625 172.300781 15.527344 173.597656 18.414062 C 174.898438 21.304688 174.167969 24.574219 171.765625 26.636719 C 139.632812 54.214844 122.464844 97.554688 130.351562 142.277344 C 142.238281 209.679688 206.511719 254.6875 273.914062 242.800781 C 305.863281 237.167969 332.773438 219.761719 350.984375 195.832031 C 352.902344 193.3125 356.128906 192.390625 359.089844 193.519531 C 362.046875 194.648438 363.839844 197.480469 363.59375 200.636719 Z M 363.59375 200.632812 " fill-opacity="1" fill-rule="evenodd"/></g></g></g></svg>