<svg xmlns="http://www.w3.org/2000/svg" xmlns:xlink="http://www.w3.org/1999/xlink" width="500" zoomAndPan="magnify" viewBox="0 0 375 374.999991" height="500" preserveAspectRatio="xMidYMid meet" version="1.0"><path fill="#ffffff" d="M 281.25 187.5 C 281.25 189.035156 281.210938 190.566406 281.136719 192.101562 C 281.0625 193.632812 280.949219 195.164062 280.796875 196.6875 C 280.648438 198.214844 280.460938 199.738281 280.234375 201.257812 C 280.011719 202.773438 279.746094 204.285156 279.449219 205.789062 C 279.148438 207.292969 278.8125 208.792969 278.441406 210.28125 C 278.066406 211.769531 277.660156 213.246094 277.214844 214.714844 C 276.769531 216.183594 276.285156 217.640625 275.769531 219.082031 C 275.253906 220.527344 274.699219 221.960938 274.113281 223.375 C 273.527344 224.792969 272.90625 226.195312 272.25 227.582031 C 271.59375 228.96875 270.902344 230.339844 270.179688 231.695312 C 269.457031 233.046875 268.699219 234.382812 267.910156 235.695312 C 267.125 237.011719 266.300781 238.308594 265.449219 239.585938 C 264.597656 240.859375 263.714844 242.113281 262.800781 243.347656 C 261.886719 244.578125 260.941406 245.789062 259.96875 246.972656 C 258.996094 248.160156 257.996094 249.320312 256.964844 250.457031 C 255.933594 251.59375 254.875 252.707031 253.792969 253.792969 C 252.707031 254.875 251.59375 255.933594 250.457031 256.964844 C 249.320312 257.996094 248.160156 258.996094 246.972656 259.96875 C 245.789062 260.941406 244.578125 261.886719 243.347656 262.800781 C 242.113281 263.714844 240.859375 264.597656 239.585938 265.449219 C 238.308594 266.300781 237.011719 267.125 235.695312 267.910156 C 234.382812 268.699219 233.046875 269.457031 231.695312 270.179688 C 230.339844 270.902344 228.96875 271.59375 227.582031 272.25 C 226.195312 272.90625 224.792969 273.527344 223.375 274.113281 C 221.960938 274.699219 220.527344 275.253906 219.082031 275.769531 C 217.640625 276.285156 216.183594 276.769531 214.714844 277.214844 C 213.246094 277.660156 211.769531 278.066406 210.28125 278.441406 C 208.792969 278.8125 207.292969 279.148438 205.789062 279.449219 C 204.285156 279.746094 202.773438 280.011719 201.257812 280.234375 C 199.738281 280.460938 198.214844 280.648438 196.6875 280.796875 C 195.164062 280.949219 193.632812 281.0625 192.101562 281.136719 C 190.566406 281.210938 189.035156 281.25 187.5 281.25 C 185.964844 281.25 184.433594 281.210938 182.898438 281.136719 C 181.367188 281.0625 179.835938 280.949219 178.3125 280.796875 C 176.785156 280.648438 175.261719 280.460938 173.742188 280.234375 C 172.226562 280.011719 170.714844 279.746094 169.210938 279.449219 C 167.707031 279.148438 166.207031 278.8125 164.71875 278.441406 C 163.230469 278.066406 161.753906 277.660156 160.285156 277.214844 C 158.816406 276.769531 157.359375 276.285156 155.917969 275.769531 C 154.472656 275.253906 153.039062 274.699219 151.625 274.113281 C 150.207031 273.527344 148.804688 272.90625 147.417969 272.25 C 146.03125 271.59375 144.660156 270.902344 143.304688 270.179688 C 141.953125 269.457031 140.617188 268.699219 139.304688 267.910156 C 137.988281 267.125 136.691406 266.300781 135.414062 265.449219 C 134.140625 264.597656 132.886719 263.714844 131.652344 262.800781 C 130.421875 261.886719 129.210938 260.941406 128.027344 259.96875 C 126.839844 258.996094 125.679688 257.996094 124.542969 256.964844 C 123.40625 255.933594 122.292969 254.875 121.207031 253.792969 C 120.125 252.707031 119.066406 251.59375 118.035156 250.457031 C 117.003906 249.320312 116.003906 248.160156 115.03125 246.972656 C 114.058594 245.789062 113.113281 244.578125 112.199219 243.347656 C 111.285156 242.113281 110.402344 240.859375 109.550781 239.585938 C 108.699219 238.308594 107.875 237.011719 107.089844 235.695312 C 106.300781 234.382812 105.542969 233.046875 104.820312 231.695312 C 104.097656 230.339844 103.40625 228.96875 102.75 227.582031 C 102.09375 226.195312 101.472656 224.792969 100.886719 223.375 C 100.300781 221.960938 99.746094 220.527344 99.230469 219.082031 C 98.714844 217.640625 98.230469 216.183594 97.785156 214.714844 C 97.339844 213.246094 96.933594 211.769531 96.558594 210.28125 C 96.1875 208.792969 95.851562 207.292969 95.550781 205.789062 C 95.253906 204.285156 94.988281 202.773438 94.765625 201.257812 C 94.539062 199.738281 94.351562 198.214844 94.203125 196.6875 C 94.050781 195.164062 93.9375 193.632812 93.863281 192.101562 C 93.789062 190.566406 93.75 189.035156 93.75 187.5 C 93.75 185.964844 93.789062 184.433594 93.863281 182.898438 C 93.9375 181.367188 94.050781 179.835938 94.203125 178.3125 C 94.351562 176.785156 94.539062 175.261719 94.765625 173.742188 C 94.988281 172.226562 95.253906 170.714844 95.550781 169.210938 C 95.851562 167.707031 96.1875 166.207031 96.558594 164.71875 C 96.933594 163.230469 97.339844 161.753906 97.785156 160.285156 C 98.230469 158.816406 98.714844 157.359375 99.230469 155.917969 C 99.746094 154.472656 100.300781 153.039062 100.886719 151.625 C 101.472656 150.207031 102.09375 148.804688 102.75 147.417969 C 103.40625 146.03125 104.097656 144.660156 104.820312 143.304688 C 105.542969 141.953125 106.300781 140.617188 107.089844 139.304688 C 107.875 137.988281 108.699219 136.691406 109.550781 135.414062 C 110.402344 134.140625 111.285156 132.886719 112.199219 131.652344 C 113.113281 130.421875 114.058594 129.210938 115.03125 128.027344 C 116.003906 126.839844 117.003906 125.679688 118.035156 124.542969 C 119.066406 123.40625 120.125 122.292969 121.207031 121.207031 C 122.292969 120.125 123.40625 119.066406 124.542969 118.035156 C 125.679688 117.003906 126.839844 116.003906 128.027344 115.03125 C 129.210938 114.058594 130.421875 113.113281 131.652344 112.199219 C 132.886719 111.285156 134.140625 110.402344 135.414062 109.550781 C 136.691406 108.699219 137.988281 107.875 139.304688 107.089844 C 140.617188 106.300781 141.953125 105.542969 143.304688 104.820312 C 144.660156 104.097656 146.03125 103.40625 147.417969 102.75 C 148.804688 102.09375 150.207031 101.472656 151.625 100.886719 C 153.039062 100.300781 154.472656 99.746094 155.917969 99.230469 C 157.359375 98.714844 158.816406 98.230469 160.285156 97.785156 C 161.753906 97.339844 163.230469 96.933594 164.71875 96.558594 C 166.207031 96.1875 167.707031 95.851562 169.210938 95.550781 C 170.714844 95.253906 172.226562 94.988281 173.742188 94.765625 C 175.261719 94.539062 176.785156 94.351562 178.3125 94.203125 C 179.835938 94.050781 181.367188 93.9375 182.898438 93.863281 C 184.433594 93.789062 185.964844 93.75 187.5 93.75 C 189.035156 93.75 190.566406 93.789062 192.101562 93.863281 C 193.632812 93.9375 195.164062 94.050781 196.6875 94.203125 C 198.214844 94.351562 199.738281 94.539062 201.257812 94.765625 C 202.773438 94.988281 204.285156 95.253906 205.789062 95.550781 C 207.292969 95.851562 208.792969 96.1875 210.28125 96.558594 C 211.769531 96.933594 213.246094 97.339844 214.714844 97.785156 C 216.183594 98.230469 217.640625 98.714844 219.082031 99.230469 C 220.527344 99.746094 221.960938 100.300781 223.375 100.886719 C 224.792969 101.472656 226.195312 102.09375 227.582031 102.75 C 228.96875 103.40625 230.339844 104.097656 231.695312 104.820312 C 233.046875 105.542969 234.382812 106.300781 235.695312 107.089844 C 237.011719 107.875 238.308594 108.699219 239.585938 109.550781 C 240.859375 110.402344 242.113281 111.285156 243.347656 112.199219 C 244.578125 113.113281 245.789062 114.058594 246.972656 115.03125 C 248.160156 116.003906 249.320312 117.003906 250.457031 118.035156 C 251.59375 119.066406 252.707031 120.125 253.792969 121.207031 C 254.875 122.292969 255.933594 123.40625 256.964844 124.542969 C 257.996094 125.679688 258.996094 126.839844 259.96875 128.027344 C 260.941406 129.210938 261.886719 130.421875 262.800781 131.652344 C 263.714844 132.886719 264.597656 134.140625 265.449219 135.414062 C 266.300781 136.691406 267.125 137.988281 267.910156 139.304688 C 268.699219 140.617188 269.457031 141.953125 270.179688 143.304688 C 270.902344 144.660156 271.59375 146.03125 272.25 147.417969 C 272.90625 148.804688 273.527344 150.207031 274.113281 151.625 C 274.699219 153.039062 275.253906 154.472656 275.769531 155.917969 C 276.285156 157.359375 276.769531 158.816406 277.214844 160.285156 C 277.660156 161.753906 278.066406 163.230469 278.441406 164.71875 C 278.8125 166.207031 279.148438 167.707031 279.449219 169.210938 C 279.746094 170.714844 280.011719 172.226562 280.234375 173.742188 C 280.460938 175.261719 280.648438 176.785156 280.796875 178.3125 C 280.949219 179.835938 281.0625 181.367188 281.136719 182.898438 C 281.210938 184.433594 281.25 185.964844 281.25 187.5 Z M 281.25 187.5 " fill-opacity="1" fill-rule="nonzero"/><path fill="#ffffff" d="M 187.5 56.242188 C 177.144531 56.242188 168.75 47.847656 168.75 37.492188 L 168.75 18.75 C 168.75 8.394531 177.144531 0 187.5 0 C 197.855469 0 206.25 8.394531 206.25 18.75 L 206.25 37.492188 C 206.25 47.847656 197.855469 56.242188 187.5 56.242188 Z M 187.5 56.242188 " fill-opacity="1" fill-rule="nonzero"/><path fill="#ffffff" d="M 293.574219 100.179688 C 288.777344 100.179688 283.976562 98.351562 280.316406 94.691406 C 272.992188 87.371094 272.992188 75.5 280.308594 68.175781 L 293.554688 54.921875 C 300.878906 47.597656 312.753906 47.59375 320.078125 54.914062 C 327.402344 62.234375 327.402344 74.105469 320.085938 81.429688 L 306.839844 94.683594 C 303.175781 98.347656 298.371094 100.179688 293.574219 100.179688 Z M 293.574219 100.179688 " fill-opacity="1" fill-rule="nonzero"/><path fill="#ffffff" d="M 356.25 206.25 L 337.507812 206.25 C 327.15625 206.25 318.757812 197.855469 318.757812 187.5 C 318.757812 177.144531 327.15625 168.75 337.507812 168.75 L 356.25 168.75 C 366.605469 168.75 375 177.144531 375 187.5 C 375 197.855469 366.605469 206.25 356.25 206.25 Z M 356.25 206.25 " fill-opacity="1" fill-rule="nonzero"/><path fill="#ffffff" d="M 306.820312 325.574219 C 302.023438 325.574219 297.214844 323.746094 293.554688 320.078125 L 280.308594 306.824219 C 272.992188 299.5 272.992188 287.628906 280.316406 280.308594 C 287.640625 272.988281 299.515625 272.988281 306.839844 280.316406 L 320.085938 293.570312 C 327.402344 300.894531 327.402344 312.765625 320.078125 320.085938 C 316.414062 323.746094 311.617188 325.574219 306.820312 325.574219 Z M 306.820312 325.574219 " fill-opacity="1" fill-rule="nonzero"/><path fill="#ffffff" d="M 187.5 375 C 177.144531 375 168.75 366.605469 168.75 356.25 L 168.75 337.507812 C 168.75 327.152344 177.144531 318.757812 187.5 318.757812 C 197.855469 318.757812 206.25 327.152344 206.25 337.507812 L 206.25 356.25 C 206.25 366.605469 197.855469 375 187.5 375 Z M 187.5 375 " fill-opacity="1" fill-rule="nonzero"/><path fill="#ffffff" d="M 68.179688 325.574219 C 63.382812 325.574219 58.585938 323.746094 54.921875 320.085938 C 47.597656 312.765625 47.597656 300.894531 54.914062 293.570312 L 68.160156 280.316406 C 75.484375 272.988281 87.359375 272.988281 94.683594 280.308594 C 102.007812 287.628906 102.007812 299.5 94.691406 306.824219 L 81.445312 320.078125 C 77.785156 323.742188 72.976562 325.574219 68.179688 325.574219 Z M 68.179688 325.574219 " fill-opacity="1" fill-rule="nonzero"/><path fill="#ffffff" d="M 37.492188 206.25 L 18.75 206.25 C 8.394531 206.25 0 197.855469 0 187.5 C 0 177.144531 8.394531 168.75 18.75 168.75 L 37.492188 168.75 C 47.84375 168.75 56.242188 177.144531 56.242188 187.5 C 56.242188 197.855469 47.84375 206.25 37.492188 206.25 Z M 37.492188 206.25 " fill-opacity="1" fill-rule="nonzero"/><path fill="#ffffff" d="M 81.425781 100.179688 C 76.628906 100.179688 71.824219 98.347656 68.160156 94.683594 L 54.914062 81.429688 C 47.597656 74.105469 47.597656 62.234375 54.921875 54.914062 C 62.246094 47.59375 74.121094 47.589844 81.445312 54.921875 L 94.691406 68.175781 C 102.007812 75.5 102.007812 87.371094 94.683594 94.691406 C 91.023438 98.351562 86.222656 100.179688 81.425781 100.179688 Z M 81.425781 100.179688 " fill-opacity="1" fill-rule="nonzero"/><path fill="#ffffff" d="M 281.25 187.5 C 281.25 189.035156 281.210938 190.566406 281.136719 192.101562 C 281.0625 193.632812 280.949219 195.164062 280.796875 196.6875 C 280.648438 198.214844 280.460938 199.738281 280.234375 201.257812 C 280.011719 202.773438 279.746094 204.285156 279.449219 205.789062 C 279.148438 207.292969 278.8125 208.792969 278.441406 210.28125 C 278.066406 211.769531 277.660156 213.246094 277.214844 214.714844 C 276.769531 216.183594 276.285156 217.640625 275.769531 219.082031 C 275.253906 220.527344 274.699219 221.960938 274.113281 223.375 C 273.527344 224.792969 272.90625 226.195312 272.25 227.582031 C 271.59375 228.96875 270.902344 230.339844 270.179688 231.695312 C 269.457031 233.046875 268.699219 234.382812 267.910156 235.695312 C 267.125 237.011719 266.300781 238.308594 265.449219 239.585938 C 264.597656 240.859375 263.714844 242.113281 262.800781 243.347656 C 261.886719 244.578125 260.941406 245.789062 259.96875 246.972656 C 258.996094 248.160156 257.996094 249.320312 256.964844 250.457031 C 255.933594 251.59375 254.875 252.707031 253.792969 253.792969 C 252.707031 254.875 251.59375 255.933594 250.457031 256.964844 C 249.320312 257.996094 248.160156 258.996094 246.972656 259.96875 C 245.789062 260.941406 244.578125 261.886719 243.347656 262.800781 C 242.113281 263.714844 240.859375 264.597656 239.585938 265.449219 C 238.308594 266.300781 237.011719 267.125 235.695312 267.910156 C 234.382812 268.699219 233.046875 269.457031 231.695312 270.179688 C 230.339844 270.902344 228.96875 271.59375 227.582031 272.25 C 226.195312 272.90625 224.792969 273.527344 223.375 274.113281 C 221.960938 274.699219 220.527344 275.253906 219.082031 275.769531 C 217.640625 276.285156 216.183594 276.769531 214.714844 277.214844 C 213.246094 277.660156 211.769531 278.066406 210.28125 278.441406 C 208.792969 278.8125 207.292969 279.148438 205.789062 279.449219 C 204.285156 279.746094 202.773438 280.011719 201.257812 280.234375 C 199.738281 280.460938 198.214844 280.648438 196.6875 280.796875 C 195.164062 280.949219 193.632812 281.0625 192.101562 281.136719 C 190.566406 281.210938 189.035156 281.25 187.5 281.25 C 185.964844 281.25 184.433594 281.210938 182.898438 281.136719 C 181.367188 281.0625 179.835938 280.949219 178.3125 280.796875 C 176.785156 280.648438 175.261719 280.460938 173.742188 280.234375 C 172.226562 280.011719 170.714844 279.746094 169.210938 279.449219 C 167.707031 279.148438 166.207031 278.8125 164.71875 278.441406 C 163.230469 278.066406 161.753906 277.660156 160.285156 277.214844 C 158.816406 276.769531 157.359375 276.285156 155.917969 275.769531 C 154.472656 275.253906 153.039062 274.699219 151.625 274.113281 C 150.207031 273.527344 148.804688 272.90625 147.417969 272.25 C 146.03125 271.59375 144.660156 270.902344 143.304688 270.179688 C 141.953125 269.457031 140.617188 268.699219 139.304688 267.910156 C 137.988281 267.125 136.691406 266.300781 135.414062 265.449219 C 134.140625 264.597656 132.886719 263.714844 131.652344 262.800781 C 130.421875 261.886719 129.210938 260.941406 128.027344 259.96875 C 126.839844 258.996094 125.679688 257.996094 124.542969 256.964844 C 123.40625 255.933594 122.292969 254.875 121.207031 253.792969 C 120.125 252.707031 119.066406 251.59375 118.035156 250.457031 C 117.003906 249.320312 116.003906 248.160156 115.03125 246.972656 C 114.058594 245.789062 113.113281 244.578125 112.199219 243.347656 C 111.285156 242.113281 110.402344 240.859375 109.550781 239.585938 C 108.699219 238.308594 107.875 237.011719 107.089844 235.695312 C 106.300781 234.382812 105.542969 233.046875 104.820312 231.695312 C 104.097656 230.339844 103.40625 228.96875 102.75 227.582031 C 102.09375 226.195312 101.472656 224.792969 100.886719 223.375 C 100.300781 221.960938 99.746094 220.527344 99.230469 219.082031 C 98.714844 217.640625 98.230469 216.183594 97.785156 214.714844 C 97.339844 213.246094 96.933594 211.769531 96.558594 210.28125 C 96.1875 208.792969 95.851562 207.292969 95.550781 205.789062 C 95.253906 204.285156 94.988281 202.773438 94.765625 201.257812 C 94.539062 199.738281 94.351562 198.214844 94.203125 196.6875 C 94.050781 195.164062 93.9375 193.632812 93.863281 192.101562 C 93.789062 190.566406 93.75 189.035156 93.75 187.5 C 93.75 185.964844 93.789062 184.433594 93.863281 182.898438 C 93.9375 181.367188 94.050781 179.835938 94.203125 178.3125 C 94.351562 176.785156 94.539062 175.261719 94.765625 173.742188 C 94.988281 172.226562 95.253906 170.714844 95.550781 169.210938 C 95.851562 167.707031 96.1875 166.207031 96.558594 164.71875 C 96.933594 163.230469 97.339844 161.753906 97.785156 160.285156 C 98.230469 158.816406 98.714844 157.359375 99.230469 155.917969 C 99.746094 154.472656 100.300781 153.039062 100.886719 151.625 C 101.472656 150.207031 102.09375 148.804688 102.75 147.417969 C 103.40625 146.03125 104.097656 144.660156 104.820312 143.304688 C 105.542969 141.953125 106.300781 140.617188 107.089844 139.304688 C 107.875 137.988281 108.699219 136.691406 109.550781 135.414062 C 110.402344 134.140625 111.285156 132.886719 112.199219 131.652344 C 113.113281 130.421875 114.058594 129.210938 115.03125 128.027344 C 116.003906 126.839844 117.003906 125.679688 118.035156 124.542969 C 119.066406 123.40625 120.125 122.292969 121.207031 121.207031 C 122.292969 120.125 123.40625 119.066406 124.542969 118.035156 C 125.679688 117.003906 126.839844 116.003906 128.027344 115.03125 C 129.210938 114.058594 130.421875 113.113281 131.652344 112.199219 C 132.886719 111.285156 134.140625 110.402344 135.414062 109.550781 C 136.691406 108.699219 137.988281 107.875 139.304688 107.089844 C 140.617188 106.300781 141.953125 105.542969 143.304688 104.820312 C 144.660156 104.097656 146.03125 103.40625 147.417969 102.75 C 148.804688 102.09375 150.207031 101.472656 151.625 100.886719 C 153.039062 100.300781 154.472656 99.746094 155.917969 99.230469 C 157.359375 98.714844 158.816406 98.230469 160.285156 97.785156 C 161.753906 97.339844 163.230469 96.933594 164.71875 96.558594 C 166.207031 96.1875 167.707031 95.851562 169.210938 95.550781 C 170.714844 95.253906 172.226562 94.988281 173.742188 94.765625 C 175.261719 94.539062 176.785156 94.351562 178.3125 94.203125 C 179.835938 94.050781 181.367188 93.9375 182.898438 93.863281 C 184.433594 93.789062 185.964844 93.75 187.5 93.75 C 189.035156 93.75 190.566406 93.789062 192.101562 93.863281 C 193.632812 93.9375 195.164062 94.050781 196.6875 94.203125 C 198.214844 94.351562 199.738281 94.539062 201.257812 94.765625 C 202.773438 94.988281 204.285156 95.253906 205.789062 95.550781 C 207.292969 95.851562 208.792969 96.1875 210.28125 96.558594 C 211.769531 96.933594 213.246094 97.339844 214.714844 97.785156 C 216.183594 98.230469 217.640625 98.714844 219.082031 99.230469 C 220.527344 99.746094 221.960938 100.300781 223.375 100.886719 C 224.792969 101.472656 226.195312 102.09375 227.582031 102.75 C 228.96875 103.40625 230.339844 104.097656 231.695312 104.820312 C 233.046875 105.542969 234.382812 106.300781 235.695312 107.089844 C 237.011719 107.875 238.308594 108.699219 239.585938 109.550781 C 240.859375 110.402344 242.113281 111.285156 243.347656 112.199219 C 244.578125 113.113281 245.789062 114.058594 246.972656 115.03125 C 248.160156 116.003906 249.320312 117.003906 250.457031 118.035156 C 251.59375 119.066406 252.707031 120.125 253.792969 121.207031 C 254.875 122.292969 255.933594 123.40625 256.964844 124.542969 C 257.996094 125.679688 258.996094 126.839844 259.96875 128.027344 C 260.941406 129.210938 261.886719 130.421875 262.800781 131.652344 C 263.714844 132.886719 264.597656 134.140625 265.449219 135.414062 C 266.300781 136.691406 267.125 137.988281 267.910156 139.304688 C 268.699219 140.617188 269.457031 141.953125 270.179688 143.304688 C 270.902344 144.660156 271.59375 146.03125 272.25 147.417969 C 272.90625 148.804688 273.527344 150.207031 274.113281 151.625 C 274.699219 153.039062 275.253906 154.472656 275.769531 155.917969 C 276.285156 157.359375 276.769531 158.816406 277.214844 160.285156 C 277.660156 161.753906 278.066406 163.230469 278.441406 164.71875 C 278.8125 166.207031 279.148438 167.707031 279.449219 169.210938 C 279.746094 170.714844 280.011719 172.226562 280.234375 173.742188 C 280.460938 175.261719 280.648438 176.785156 280.796875 178.3125 C 280.949219 179.835938 281.0625 181.367188 281.136719 182.898438 C 281.210938 184.433594 281.25 185.964844 281.25 187.5 Z M 281.25 187.5 " fill-opacity="1" fill-rule="nonzero"/><path fill="#ffffff" d="M 187.5 56.242188 C 177.144531 56.242188 168.75 47.847656 168.75 37.492188 L 168.75 18.75 C 168.75 8.394531 177.144531 0 187.5 0 C 197.855469 0 206.25 8.394531 206.25 18.75 L 206.25 37.492188 C 206.25 47.847656 197.855469 56.242188 187.5 56.242188 Z M 187.5 56.242188 " fill-opacity="1" fill-rule="nonzero"/><path fill="#ffffff" d="M 293.574219 100.179688 C 288.777344 100.179688 283.976562 98.351562 280.316406 94.691406 C 272.992188 87.371094 272.992188 75.5 280.308594 68.175781 L 293.554688 54.921875 C 300.878906 47.597656 312.753906 47.59375 320.078125 54.914062 C 327.402344 62.234375 327.402344 74.105469 320.085938 81.429688 L 306.839844 94.683594 C 303.175781 98.347656 298.371094 100.179688 293.574219 100.179688 Z M 293.574219 100.179688 " fill-opacity="1" fill-rule="nonzero"/><path fill="#ffffff" d="M 356.25 206.25 L 337.507812 206.25 C 327.15625 206.25 318.757812 197.855469 318.757812 187.5 C 318.757812 177.144531 327.15625 168.75 337.507812 168.75 L 356.25 168.75 C 366.605469 168.75 375 177.144531 375 187.5 C 375 197.855469 366.605469 206.25 356.25 206.25 Z M 356.25 206.25 " fill-opacity="1" fill-rule="nonzero"/><path fill="#ffffff" d="M 306.820312 325.574219 C 302.023438 325.574219 297.214844 323.746094 293.554688 320.078125 L 280.308594 306.824219 C 272.992188 299.5 272.992188 287.628906 280.316406 280.308594 C 287.640625 272.988281 299.515625 272.988281 306.839844 280.316406 L 320.085938 293.570312 C 327.402344 300.894531 327.402344 312.765625 320.078125 320.085938 C 316.414062 323.746094 311.617188 325.574219 306.820312 325.574219 Z M 306.820312 325.574219 " fill-opacity="1" fill-rule="nonzero"/><path fill="#ffffff" d="M 187.5 375 C 177.144531 375 168.75 366.605469 168.75 356.25 L 168.75 337.507812 C 168.75 327.152344 177.144531 318.757812 187.5 318.757812 C 197.855469 318.757812 206.25 327.152344 206.25 337.507812 L 206.25 356.25 C 206.25 366.605469 197.855469 375 187.5 375 Z M 187.5 375 " fill-opacity="1" fill-rule="nonzero"/><path fill="#ffffff" d="M 68.179688 325.574219 C 63.382812 325.574219 58.585938 323.746094 54.921875 320.085938 C 47.597656 312.765625 47.597656 300.894531 54.914062 293.570312 L 68.160156 280.316406 C 75.484375 272.988281 87.359375 272.988281 94.683594 280.308594 C 102.007812 287.628906 102.007812 299.5 94.691406 306.824219 L 81.445312 320.078125 C 77.785156 323.742188 72.976562 325.574219 68.179688 325.574219 Z M 68.179688 325.574219 " fill-opacity="1" fill-rule="nonzero"/><path fill="#ffffff" d="M 37.492188 206.25 L 18.75 206.25 C 8.394531 206.25 0 197.855469 0 187.5 C 0 177.144531 8.394531 168.75 18.75 168.75 L 37.492188 168.75 C 47.84375 168.75 56.242188 177.144531 56.242188 187.5 C 56.242188 197.855469 47.84375 206.25 37.492188 206.25 Z M 37.492188 206.25 " fill-opacity="1" fill-rule="nonzero"/><path fill="#ffffff" d="M 81.425781 100.179688 C 76.628906 100.179688 71.824219 98.347656 68.160156 94.683594 L 54.914062 81.429688 C 47.597656 74.105469 47.597656 62.234375 54.921875 54.914062 C 62.246094 47.59375 74.121094 47.589844 81.445312 54.921875 L 94.691406 68.175781 C 102.007812 75.5 102.007812 87.371094 94.683594 94.691406 C 91.023438 98.351562 86.222656 100.179688 81.425781 100.179688 Z M 81.425781 100.179688 " fill-opacity="1" fill-rule="nonzero"/></svg>