<svg xmlns="http://www.w3.org/2000/svg" xmlns:xlink="http://www.w3.org/1999/xlink" width="500" zoomAndPan="magnify" viewBox="0 0 375 374.999991" height="500" preserveAspectRatio="xMidYMid meet" version="1.0"><defs><clipPath id="bdd11b3b36"><path d="M 0 125 L 374 125 L 374 320.386719 L 0 320.386719 Z M 0 125 " clip-rule="nonzero"/></clipPath><clipPath id="83fba1098b"><path d="M 0 125 L 374 125 L 374 320.386719 L 0 320.386719 Z M 0 125 " clip-rule="nonzero"/></clipPath></defs><g clip-path="url(#bdd11b3b36)"><path fill="#ffffff" d="M 1.050781 125.769531 C 17.976562 136.140625 34.148438 146.039062 50.316406 155.960938 C 92.496094 181.816406 134.683594 207.648438 176.835938 233.535156 C 184.121094 238.011719 191.167969 237.398438 198.214844 233.082031 C 230.160156 213.511719 262.105469 193.941406 294.0625 174.390625 C 319.25 158.972656 344.457031 143.585938 369.65625 128.191406 C 370.550781 127.640625 371.496094 127.167969 373.035156 126.316406 C 373.164062 128.492188 373.335938 130.050781 373.335938 131.601562 C 373.347656 185.355469 373.359375 239.109375 373.335938 292.863281 C 373.335938 310.441406 363.933594 320.09375 346.449219 320.105469 C 239.867188 320.160156 133.273438 320.148438 26.691406 320.105469 C 11.1875 320.105469 0.835938 310.175781 0.8125 295.175781 C 0.738281 239.765625 0.78125 184.34375 0.804688 128.921875 C 0.804688 128.191406 0.910156 127.46875 1.0625 125.769531 Z M 1.050781 125.769531 " fill-opacity="1" fill-rule="nonzero"/></g><path fill="#ffffff" d="M 187.574219 55.046875 C 240.75 55.046875 293.933594 55.027344 347.105469 55.058594 C 360.1875 55.058594 369.238281 61.566406 372.519531 73.082031 C 374.671875 80.621094 373.972656 82.355469 367.257812 86.453125 C 311.363281 120.59375 255.304688 154.464844 199.753906 189.164062 C 190.351562 195.039062 184.230469 195.285156 174.675781 189.292969 C 118.585938 154.078125 61.96875 119.691406 5.398438 85.238281 C 1.332031 82.765625 0.363281 80.105469 0.941406 75.835938 C 2.578125 63.730469 12.8125 55.132812 26.390625 55.058594 C 47.433594 54.941406 68.492188 55.035156 89.535156 55.035156 C 122.210938 55.035156 154.898438 55.035156 187.574219 55.035156 L 187.574219 55.058594 Z M 187.574219 55.046875 " fill-opacity="1" fill-rule="nonzero"/><g clip-path="url(#83fba1098b)"><path fill="#ffffff" d="M 1.050781 125.769531 C 17.976562 136.140625 34.148438 146.039062 50.316406 155.960938 C 92.496094 181.816406 134.683594 207.648438 176.835938 233.535156 C 184.121094 238.011719 191.167969 237.398438 198.214844 233.082031 C 230.160156 213.511719 262.105469 193.941406 294.0625 174.390625 C 319.25 158.972656 344.457031 143.585938 369.65625 128.191406 C 370.550781 127.640625 371.496094 127.167969 373.035156 126.316406 C 373.164062 128.492188 373.335938 130.050781 373.335938 131.601562 C 373.347656 185.355469 373.359375 239.109375 373.335938 292.863281 C 373.335938 310.441406 363.933594 320.09375 346.449219 320.105469 C 239.867188 320.160156 133.273438 320.148438 26.691406 320.105469 C 11.1875 320.105469 0.835938 310.175781 0.8125 295.175781 C 0.738281 239.765625 0.78125 184.34375 0.804688 128.921875 C 0.804688 128.191406 0.910156 127.46875 1.0625 125.769531 Z M 1.050781 125.769531 " fill-opacity="1" fill-rule="nonzero"/></g><path fill="#ffffff" d="M 187.574219 55.046875 C 240.75 55.046875 293.933594 55.027344 347.105469 55.058594 C 360.1875 55.058594 369.238281 61.566406 372.519531 73.082031 C 374.671875 80.621094 373.972656 82.355469 367.257812 86.453125 C 311.363281 120.59375 255.304688 154.464844 199.753906 189.164062 C 190.351562 195.039062 184.230469 195.285156 174.675781 189.292969 C 118.585938 154.078125 61.96875 119.691406 5.398438 85.238281 C 1.332031 82.765625 0.363281 80.105469 0.941406 75.835938 C 2.578125 63.730469 12.8125 55.132812 26.390625 55.058594 C 47.433594 54.941406 68.492188 55.035156 89.535156 55.035156 C 122.210938 55.035156 154.898438 55.035156 187.574219 55.035156 L 187.574219 55.058594 Z M 187.574219 55.046875 " fill-opacity="1" fill-rule="nonzero"/></svg>