<svg xmlns="http://www.w3.org/2000/svg" xmlns:xlink="http://www.w3.org/1999/xlink" width="500" zoomAndPan="magnify" viewBox="0 0 375 374.999991" height="500" preserveAspectRatio="xMidYMid meet" version="1.0"><path fill="#ffffff" d="M 267.875 264.390625 C 274.316406 279.289062 272.558594 294.816406 272.65625 310.15625 C 272.757812 325.449219 272.753906 340.742188 272.648438 356.035156 C 272.558594 367.40625 263.402344 374.992188 252.84375 372.675781 C 245.480469 371.058594 240.308594 364.648438 240.289062 356.730469 C 240.242188 335.113281 240.164062 313.5 240.386719 291.886719 C 240.496094 281.117188 237.324219 271.773438 230.050781 263.855469 C 225.363281 258.761719 223.660156 252.949219 226.167969 246.402344 C 228.597656 240.054688 233.566406 237.109375 240.25 235.867188 C 252.5 233.589844 264.9375 231.625 276.753906 227.832031 C 304.054688 219.078125 320.039062 199.582031 325.871094 171.796875 C 329.449219 154.761719 331.109375 137.554688 326.742188 120.347656 C 323.925781 109.25 318.671875 99.351562 310.855469 91.003906 C 305.140625 84.898438 303.773438 78.429688 306.601562 70.511719 C 310.816406 58.710938 311.25 46.59375 308.144531 33.640625 C 303.890625 35.089844 299.667969 36.007812 295.941406 37.898438 C 286.5 42.683594 277.058594 47.542969 268.050781 53.070312 C 262.011719 56.78125 256.25 57.886719 249.382812 56.113281 C 216.3125 47.554688 183.214844 47.570312 150.09375 56.152344 C 143.382812 57.894531 137.589844 57.039062 131.804688 53.117188 C 120.488281 45.453125 108.585938 38.828125 95.371094 34.902344 C 94.191406 34.550781 92.976562 34.320312 91.496094 33.96875 C 89.039062 43.007812 88.839844 51.871094 90.511719 60.753906 C 91.253906 64.703125 92.445312 68.585938 93.664062 72.425781 C 95.628906 78.609375 94.804688 84.277344 90.402344 89.035156 C 75.984375 104.609375 69.585938 122.992188 70.421875 144.097656 C 71.003906 158.695312 72.777344 173.050781 78.21875 186.734375 C 87.039062 208.910156 103.851562 222.367188 126.105469 229.132812 C 136.558594 232.308594 147.433594 234.234375 158.230469 236.085938 C 169.191406 237.964844 175.675781 244.703125 174.226562 254.628906 C 173.765625 257.800781 172.125 261.238281 169.996094 263.648438 C 162.308594 272.359375 159.027344 282.277344 159.207031 293.859375 C 159.523438 314.710938 159.363281 335.570312 159.28125 356.425781 C 159.246094 365.996094 152.390625 373.054688 143.34375 373.175781 C 134.238281 373.296875 127.203125 366.070312 127.109375 356.332031 C 127.023438 347.25 127.089844 338.167969 127.089844 329.566406 C 118.824219 329.566406 110.890625 329.992188 103.015625 329.480469 C 84.234375 328.257812 68.597656 320.070312 55.84375 306.472656 C 50.0625 300.308594 44.878906 293.582031 39.488281 287.058594 C 35.035156 281.671875 30.40625 276.894531 23.367188 274.457031 C 15.5625 271.757812 11.988281 262.476562 14.679688 254.640625 C 17.445312 246.589844 25.800781 242.160156 34.089844 244.285156 C 44.796875 247.035156 53.152344 253.386719 60.226562 261.554688 C 65.351562 267.476562 70.269531 273.582031 75.109375 279.738281 C 88.664062 296.976562 106.34375 300.558594 126.628906 295.703125 C 127.007812 290.308594 127.058594 284.996094 127.839844 279.792969 C 128.601562 274.710938 130.113281 269.738281 131.324219 264.597656 C 125.554688 262.839844 119.492188 261.207031 113.578125 259.148438 C 70.335938 244.101562 46.859375 212.917969 40.175781 168.371094 C 37.542969 150.816406 36.648438 133.179688 40.703125 115.625 C 43.929688 101.652344 49.703125 88.859375 58.234375 77.347656 C 59.703125 75.367188 60.226562 73.613281 59.664062 71.140625 C 55.109375 51.089844 56.761719 31.503906 64.414062 12.429688 C 67.59375 4.511719 72.84375 1.328125 81.308594 0.929688 C 101.289062 -0.00390625 118.734375 7.667969 135.152344 17.507812 C 143.023438 22.226562 149.976562 23.078125 158.757812 21.332031 C 188.738281 15.378906 218.804688 16.246094 248.667969 22.675781 C 252.113281 23.414062 254.761719 23.074219 257.808594 21.210938 C 272.625 12.136719 288.054688 4.316406 305.4375 1.558594 C 310.746094 0.71875 316.304688 0.71875 321.671875 1.203125 C 328.074219 1.78125 332.496094 5.660156 334.933594 11.675781 C 342.808594 31.085938 344.582031 50.996094 340.074219 71.492188 C 339.726562 73.074219 340.121094 75.324219 341.0625 76.613281 C 356.867188 98.273438 363.023438 122.574219 361.40625 149.117188 C 360.332031 166.742188 357.617188 184.011719 350.710938 200.398438 C 337.648438 231.386719 313.96875 250.328125 282.453125 260.28125 C 277.785156 261.753906 273.03125 262.945312 267.875 264.390625 Z M 267.875 264.390625 " fill-opacity="1" fill-rule="nonzero"/><path fill="#ffffff" d="M 267.875 264.390625 C 274.316406 279.289062 272.558594 294.816406 272.65625 310.15625 C 272.757812 325.449219 272.753906 340.742188 272.648438 356.035156 C 272.558594 367.40625 263.402344 374.992188 252.84375 372.675781 C 245.480469 371.058594 240.308594 364.648438 240.289062 356.730469 C 240.242188 335.113281 240.164062 313.5 240.386719 291.886719 C 240.496094 281.117188 237.324219 271.773438 230.050781 263.855469 C 225.363281 258.761719 223.660156 252.949219 226.167969 246.402344 C 228.597656 240.054688 233.566406 237.109375 240.25 235.867188 C 252.5 233.589844 264.9375 231.625 276.753906 227.832031 C 304.054688 219.078125 320.039062 199.582031 325.871094 171.796875 C 329.449219 154.761719 331.109375 137.554688 326.742188 120.347656 C 323.925781 109.25 318.671875 99.351562 310.855469 91.003906 C 305.140625 84.898438 303.773438 78.429688 306.601562 70.511719 C 310.816406 58.710938 311.25 46.59375 308.144531 33.640625 C 303.890625 35.089844 299.667969 36.007812 295.941406 37.898438 C 286.5 42.683594 277.058594 47.542969 268.050781 53.070312 C 262.011719 56.78125 256.25 57.886719 249.382812 56.113281 C 216.3125 47.554688 183.214844 47.570312 150.09375 56.152344 C 143.382812 57.894531 137.589844 57.039062 131.804688 53.117188 C 120.488281 45.453125 108.585938 38.828125 95.371094 34.902344 C 94.191406 34.550781 92.976562 34.320312 91.496094 33.96875 C 89.039062 43.007812 88.839844 51.871094 90.511719 60.753906 C 91.253906 64.703125 92.445312 68.585938 93.664062 72.425781 C 95.628906 78.609375 94.804688 84.277344 90.402344 89.035156 C 75.984375 104.609375 69.585938 122.992188 70.421875 144.097656 C 71.003906 158.695312 72.777344 173.050781 78.21875 186.734375 C 87.039062 208.910156 103.851562 222.367188 126.105469 229.132812 C 136.558594 232.308594 147.433594 234.234375 158.230469 236.085938 C 169.191406 237.964844 175.675781 244.703125 174.226562 254.628906 C 173.765625 257.800781 172.125 261.238281 169.996094 263.648438 C 162.308594 272.359375 159.027344 282.277344 159.207031 293.859375 C 159.523438 314.710938 159.363281 335.570312 159.28125 356.425781 C 159.246094 365.996094 152.390625 373.054688 143.34375 373.175781 C 134.238281 373.296875 127.203125 366.070312 127.109375 356.332031 C 127.023438 347.25 127.089844 338.167969 127.089844 329.566406 C 118.824219 329.566406 110.890625 329.992188 103.015625 329.480469 C 84.234375 328.257812 68.597656 320.070312 55.84375 306.472656 C 50.0625 300.308594 44.878906 293.582031 39.488281 287.058594 C 35.035156 281.671875 30.40625 276.894531 23.367188 274.457031 C 15.5625 271.757812 11.988281 262.476562 14.679688 254.640625 C 17.445312 246.589844 25.800781 242.160156 34.089844 244.285156 C 44.796875 247.035156 53.152344 253.386719 60.226562 261.554688 C 65.351562 267.476562 70.269531 273.582031 75.109375 279.738281 C 88.664062 296.976562 106.34375 300.558594 126.628906 295.703125 C 127.007812 290.308594 127.058594 284.996094 127.839844 279.792969 C 128.601562 274.710938 130.113281 269.738281 131.324219 264.597656 C 125.554688 262.839844 119.492188 261.207031 113.578125 259.148438 C 70.335938 244.101562 46.859375 212.917969 40.175781 168.371094 C 37.542969 150.816406 36.648438 133.179688 40.703125 115.625 C 43.929688 101.652344 49.703125 88.859375 58.234375 77.347656 C 59.703125 75.367188 60.226562 73.613281 59.664062 71.140625 C 55.109375 51.089844 56.761719 31.503906 64.414062 12.429688 C 67.59375 4.511719 72.84375 1.328125 81.308594 0.929688 C 101.289062 -0.00390625 118.734375 7.667969 135.152344 17.507812 C 143.023438 22.226562 149.976562 23.078125 158.757812 21.332031 C 188.738281 15.378906 218.804688 16.246094 248.667969 22.675781 C 252.113281 23.414062 254.761719 23.074219 257.808594 21.210938 C 272.625 12.136719 288.054688 4.316406 305.4375 1.558594 C 310.746094 0.71875 316.304688 0.71875 321.671875 1.203125 C 328.074219 1.78125 332.496094 5.660156 334.933594 11.675781 C 342.808594 31.085938 344.582031 50.996094 340.074219 71.492188 C 339.726562 73.074219 340.121094 75.324219 341.0625 76.613281 C 356.867188 98.273438 363.023438 122.574219 361.40625 149.117188 C 360.332031 166.742188 357.617188 184.011719 350.710938 200.398438 C 337.648438 231.386719 313.96875 250.328125 282.453125 260.28125 C 277.785156 261.753906 273.03125 262.945312 267.875 264.390625 Z M 267.875 264.390625 " fill-opacity="1" fill-rule="nonzero"/></svg>