<?xml version="1.0" standalone="no"?><svg xmlns="http://www.w3.org/2000/svg" viewBox="0 0 1440 320"><path fill="#000b76" fill-opacity="1" d="M0,192L24,192C48,192,96,192,144,197.3C192,203,240,213,288,192C336,171,384,117,432,133.3C480,149,528,235,576,245.3C624,256,672,192,720,181.3C768,171,816,213,864,213.3C912,213,960,171,1008,138.7C1056,107,1104,85,1152,90.7C1200,96,1248,128,1296,165.3C1344,203,1392,245,1416,266.7L1440,288L1440,0L1416,0C1392,0,1344,0,1296,0C1248,0,1200,0,1152,0C1104,0,1056,0,1008,0C960,0,912,0,864,0C816,0,768,0,720,0C672,0,624,0,576,0C528,0,480,0,432,0C384,0,336,0,288,0C240,0,192,0,144,0C96,0,48,0,24,0L0,0Z"></path></svg>