<?xml version="1.0" standalone="no"?><svg xmlns="http://www.w3.org/2000/svg" viewBox="0 0 1440 320"><path fill="#000b76" fill-opacity="1" d="M0,192L24,192C48,192,96,192,144,197.3C192,203,240,213,288,192C336,171,384,117,432,133.3C480,149,528,235,576,245.3C624,256,672,192,720,181.3C768,171,816,213,864,213.3C912,213,960,171,1008,138.7C1056,107,1104,85,1152,90.7C1200,96,1248,128,1296,165.3C1344,203,1392,245,1416,266.7L1440,288L1440,320L1416,320C1392,320,1344,320,1296,320C1248,320,1200,320,1152,320C1104,320,1056,320,1008,320C960,320,912,320,864,320C816,320,768,320,720,320C672,320,624,320,576,320C528,320,480,320,432,320C384,320,336,320,288,320C240,320,192,320,144,320C96,320,48,320,24,320L0,320Z"></path></svg>