<?xml version="1.0" standalone="no"?><svg xmlns="http://www.w3.org/2000/svg" viewBox="0 0 1440 320"><path fill="#000b76" fill-opacity="1" d="M0,192L20,165.3C40,139,80,85,120,96C160,107,200,181,240,197.3C280,213,320,171,360,160C400,149,440,171,480,176C520,181,560,171,600,181.3C640,192,680,224,720,213.3C760,203,800,149,840,149.3C880,149,920,203,960,218.7C1000,235,1040,213,1080,224C1120,235,1160,277,1200,250.7C1240,224,1280,128,1320,106.7C1360,85,1400,139,1420,165.3L1440,192L1440,0L1420,0C1400,0,1360,0,1320,0C1280,0,1240,0,1200,0C1160,0,1120,0,1080,0C1040,0,1000,0,960,0C920,0,880,0,840,0C800,0,760,0,720,0C680,0,640,0,600,0C560,0,520,0,480,0C440,0,400,0,360,0C320,0,280,0,240,0C200,0,160,0,120,0C80,0,40,0,20,0L0,0Z"></path></svg>