<svg id="visual" viewBox="0 0 900 450" width="900" height="450" xmlns="http://www.w3.org/2000/svg" xmlns:xlink="http://www.w3.org/1999/xlink" version="1.1"><path d="M0 250L4.8 232.2C9.7 214.3 19.3 178.7 29 169.3C38.7 160 48.3 177 58 182.7C67.7 188.3 77.3 182.7 87 180.5C96.7 178.3 106.3 179.7 116 177C125.7 174.3 135.3 167.7 145 182.7C154.7 197.7 164.3 234.3 174 251.7C183.7 269 193.3 267 203 249.5C212.7 232 222.3 199 232 189.3C241.7 179.7 251.3 193.3 261 199.3C270.7 205.3 280.3 203.7 290 196.7C299.7 189.7 309.3 177.3 319 167.5C328.7 157.7 338.3 150.3 348 149.2C357.7 148 367.3 153 377 152.8C386.7 152.7 396.3 147.3 406 168.5C415.7 189.7 425.3 237.3 435.2 254.5C445 271.7 455 258.3 464.8 262.7C474.7 267 484.3 289 494 298C503.7 307 513.3 303 523 297C532.7 291 542.3 283 552 265.5C561.7 248 571.3 221 581 218C590.7 215 600.3 236 610 232.5C619.7 229 629.3 201 639 186C648.7 171 658.3 169 668 180C677.7 191 687.3 215 697 223.5C706.7 232 716.3 225 726 215.7C735.7 206.3 745.3 194.7 755 188.7C764.7 182.7 774.3 182.3 784 181.3C793.7 180.3 803.3 178.7 813 175C822.7 171.3 832.3 165.7 842 168.5C851.7 171.3 861.3 182.7 871 188.2C880.7 193.7 890.3 193.3 895.2 193.2L900 193L900 0L895.2 0C890.3 0 880.7 0 871 0C861.3 0 851.7 0 842 0C832.3 0 822.7 0 813 0C803.3 0 793.7 0 784 0C774.3 0 764.7 0 755 0C745.3 0 735.7 0 726 0C716.3 0 706.7 0 697 0C687.3 0 677.7 0 668 0C658.3 0 648.7 0 639 0C629.3 0 619.7 0 610 0C600.3 0 590.7 0 581 0C571.3 0 561.7 0 552 0C542.3 0 532.7 0 523 0C513.3 0 503.7 0 494 0C484.3 0 474.7 0 464.8 0C455 0 445 0 435.2 0C425.3 0 415.7 0 406 0C396.3 0 386.7 0 377 0C367.3 0 357.7 0 348 0C338.3 0 328.7 0 319 0C309.3 0 299.7 0 290 0C280.3 0 270.7 0 261 0C251.3 0 241.7 0 232 0C222.3 0 212.7 0 203 0C193.3 0 183.7 0 174 0C164.3 0 154.7 0 145 0C135.3 0 125.7 0 116 0C106.3 0 96.7 0 87 0C77.3 0 67.7 0 58 0C48.3 0 38.7 0 29 0C19.3 0 9.7 0 4.8 0L0 0Z" fill="#410084" stroke-linecap="round" stroke-linejoin="miter"></path></svg>